<?xml version="1.0" standalone="no"?>
<!DOCTYPE svg PUBLIC "-//W3C//DTD SVG 20010904//EN"
 "http://www.w3.org/TR/2001/REC-SVG-20010904/DTD/svg10.dtd">
<svg version="1.0" xmlns="http://www.w3.org/2000/svg"
 width="500.000000pt" height="500.000000pt" viewBox="0 0 500.000000 500.000000"
 preserveAspectRatio="xMidYMid meet">
<metadata>
Created by potrace 1.14, written by Peter Selinger 2001-2017
</metadata>
<g transform="translate(0.000000,500.000000) scale(0.100000,-0.100000)"
fill="#000000" stroke="none">
<path d="M3890 4941 c-14 -27 -12 -74 4 -146 8 -33 19 -107 26 -165 6 -58 14
-116 16 -130 29 -164 35 -234 30 -320 -6 -97 -27 -195 -45 -213 -23 -23 -50
98 -44 199 4 86 -2 114 -26 114 -12 0 -23 -14 -34 -40 -8 -22 -22 -40 -29 -40
-14 0 -52 24 -76 47 -15 15 -84 124 -107 170 -16 30 -42 49 -53 38 -13 -12 1
-123 22 -179 28 -75 138 -288 171 -335 24 -32 29 -59 25 -126 -3 -59 -21 -105
-71 -179 -62 -94 -224 -236 -378 -333 -188 -118 -223 -151 -397 -368 -27 -33
-69 -96 -95 -140 -67 -117 -72 -125 -91 -131 -10 -3 -27 0 -39 7 -19 10 -21 9
-16 -5 4 -10 -1 -20 -13 -26 -17 -9 -20 -7 -20 15 0 34 -12 32 -35 -7 -14 -24
-20 -29 -23 -16 -5 25 -24 28 -76 11 -41 -14 -49 -14 -57 -2 -5 8 -9 11 -9 6
0 -4 -11 0 -25 9 -18 12 -29 13 -38 6 -8 -7 -18 -7 -27 -2 -10 6 -22 2 -38
-13 l-24 -22 -126 130 c-70 72 -148 147 -173 168 -45 36 -146 87 -174 87 -8 0
-15 4 -15 9 0 5 -55 40 -122 77 -68 37 -152 86 -188 109 -74 48 -155 129 -163
162 -10 45 41 168 109 263 32 44 83 146 98 198 12 38 -18 26 -52 -22 -45 -62
-132 -98 -132 -54 0 7 11 67 25 133 26 126 31 175 17 175 -23 0 -190 -437
-192 -500 -1 -31 -38 31 -49 82 -12 52 -15 444 -5 508 3 19 10 52 15 74 21 78
37 191 33 231 -8 84 -15 125 -23 130 -5 2 -6 15 -4 27 7 38 -55 163 -73 146
-2 -3 -6 -45 -9 -94 -3 -49 -7 -123 -10 -164 -3 -49 -18 -120 -43 -200 -58
-188 -72 -275 -72 -451 0 -85 4 -180 9 -211 11 -64 60 -168 122 -259 22 -33
54 -88 71 -122 46 -93 84 -144 175 -234 105 -103 107 -120 12 -79 -70 29 -235
48 -439 50 l-125 1 -48 -33 c-69 -48 -75 -62 -71 -172 3 -107 18 -183 40 -201
8 -6 14 -19 14 -29 0 -9 19 -35 43 -57 42 -40 161 -169 213 -233 16 -19 44
-49 61 -68 18 -18 31 -37 30 -42 -3 -10 51 -60 65 -60 7 0 21 -8 32 -19 33
-30 136 -79 201 -96 73 -19 167 -19 220 0 22 8 72 20 111 26 69 11 72 11 95
-12 28 -27 33 -35 76 -117 26 -49 48 -127 54 -197 0 -5 6 2 13 18 11 26 13 23
25 -50 8 -43 19 -85 26 -93 7 -8 16 -31 20 -50 3 -19 17 -73 30 -120 43 -151
57 -262 60 -485 4 -315 40 -484 154 -720 27 -55 54 -115 61 -132 8 -20 17 -30
24 -26 6 4 21 6 34 4 15 -2 22 3 22 15 0 16 1 16 20 -1 22 -20 67 -14 76 10 5
12 9 12 30 -2 22 -14 24 -14 24 1 0 10 6 13 15 10 8 -4 15 -2 15 3 0 5 7 18
16 29 15 18 15 18 10 -8 -7 -30 4 -41 28 -32 22 8 32 53 17 76 -14 23 -7 37
19 35 21 -1 25 -9 13 -21 -12 -11 -14 -56 -3 -56 5 0 10 8 11 18 0 13 3 12 11
-6 18 -37 86 -25 101 18 4 12 6 11 6 -2 1 -22 14 -23 31 -3 6 8 16 13 21 12
12 -3 70 129 72 165 1 15 8 30 15 33 10 4 11 -4 6 -32 -9 -45 12 -37 24 10 6
22 14 31 25 29 10 -2 17 3 17 10 0 10 3 9 9 -1 8 -12 11 -8 16 15 4 16 11 38
16 49 8 17 9 16 6 -8 -3 -15 -1 -27 3 -27 9 0 60 79 60 92 0 6 7 16 17 23 15
11 15 15 0 54 -21 51 -21 65 -3 58 8 -3 17 -1 19 6 3 7 2 -7 0 -30 -8 -60 10
-54 37 13 14 34 26 51 30 43 13 -20 42 37 42 84 0 23 2 36 5 30 10 -28 22 -11
20 30 -2 37 0 42 19 40 17 -2 20 2 16 22 -3 20 0 25 16 25 19 0 71 43 89 74 5
7 26 21 48 32 36 17 40 22 38 54 -2 32 -1 33 8 11 l10 -25 15 22 c8 12 12 33
10 47 -6 31 9 33 18 2 6 -22 6 -22 31 7 l25 29 -25 29 c-25 29 -33 58 -16 58
5 0 15 -8 22 -17 12 -14 12 -16 -1 -9 -8 5 -5 -2 8 -15 22 -23 24 -23 37 -5 7
10 18 15 24 12 16 -10 22 11 6 24 -8 7 -15 19 -15 27 0 20 -51 92 -89 126 -17
15 -31 33 -31 40 0 6 -28 59 -61 117 -81 139 -212 391 -239 459 -19 50 -20 56
-5 86 8 18 15 38 15 44 0 6 6 11 14 11 7 0 28 16 47 35 19 19 48 38 67 41 17
3 50 19 73 36 22 16 51 33 65 38 13 5 24 16 24 24 0 7 7 16 15 20 8 3 15 1 15
-4 0 -6 -5 -10 -12 -10 -6 0 -9 -2 -6 -5 17 -17 217 94 308 169 90 75 170 157
170 173 0 5 14 22 31 39 25 24 30 35 27 67 -3 36 4 48 17 27 8 -14 35 6 35 26
0 7 5 16 12 20 7 5 8 3 3 -6 -5 -8 -4 -11 2 -7 6 4 14 22 17 42 4 19 13 40 20
47 27 27 48 68 42 83 -3 8 5 25 19 39 14 14 25 34 25 44 0 11 7 37 16 58 9 21
13 50 10 65 -3 16 -1 31 4 34 18 11 10 65 -15 105 -22 35 -34 42 -105 65 -45
14 -96 25 -115 25 -69 0 -219 -55 -397 -146 -73 -37 -158 -75 -158 -70 0 2 40
33 90 70 100 76 174 152 215 223 16 26 64 91 108 143 43 52 87 111 96 130 19
36 36 114 46 210 3 30 11 80 16 110 6 30 11 60 11 65 1 41 -14 294 -19 310 -4
11 -7 29 -9 40 -1 11 -4 29 -7 40 -3 11 -8 34 -13 50 -9 39 -56 156 -94 236
-16 35 -30 70 -30 77 0 20 -31 82 -41 82 -4 0 -13 -9 -19 -19z m46 -74 c3 -17
22 -72 41 -121 25 -65 32 -96 27 -119 -5 -27 -11 -15 -41 88 -18 66 -37 122
-42 125 -12 8 -21 39 -15 55 9 22 21 10 30 -28z m39 -307 c5 -73 9 -88 30
-108 28 -26 27 -23 30 -78 1 -22 5 -46 9 -53 7 -11 9 -87 3 -151 -2 -19 -4
-57 -5 -85 -2 -43 -4 -47 -14 -30 -7 12 -12 80 -13 180 -2 191 -2 186 -17 183
-19 -4 -46 149 -39 221 3 35 10 -2 16 -79z m67 25 c3 -14 1 -25 -3 -25 -5 0
-9 4 -9 9 0 5 -3 16 -6 25 -3 9 -2 16 4 16 5 0 12 -11 14 -25z m-28 -59 c3
-15 1 -37 -4 -49 -5 -12 -9 -20 -10 -17 0 3 -3 32 -6 65 -5 61 9 61 20 1z m52
-23 c0 -16 4 -57 8 -93 5 -36 8 -67 8 -70 1 -20 -3 -30 -12 -30 -6 0 -8 11 -4
26 6 24 -7 89 -27 126 -9 19 -2 49 15 60 6 4 11 8 11 8 0 0 0 -12 1 -27z
m-2890 -43 c-5 -58 -18 -64 -14 -7 2 26 6 47 10 47 5 0 6 -18 4 -40z m-61
-174 c-29 -90 -48 -126 -62 -113 -3 4 -1 13 5 19 7 7 12 23 12 36 0 20 11 54
52 152 7 17 12 21 16 11 2 -8 -8 -55 -23 -105z m52 54 c-4 -33 -14 -77 -23
-97 -9 -21 -15 -56 -15 -78 0 -22 -8 -76 -19 -120 -26 -105 -31 -245 -9 -245
5 0 8 4 4 9 -3 5 -1 12 5 16 9 5 12 -5 9 -32 0 -5 -7 -7 -16 -5 -11 3 -13 -2
-8 -20 4 -13 13 -26 19 -30 6 -4 11 -11 11 -15 3 -36 19 -110 31 -138 8 -19
12 -35 9 -35 -17 0 -80 184 -91 265 -3 28 -7 95 -7 150 0 91 4 115 48 268 27
92 51 167 53 167 3 0 2 -27 -1 -60z m2488 -66 c9 -15 19 -34 20 -43 2 -9 4
-18 5 -21 1 -3 2 -9 1 -14 -1 -5 5 -3 14 4 14 12 18 11 26 -1 5 -8 8 -23 8
-34 -1 -16 -2 -16 -9 5 -4 14 -8 19 -9 13 -2 -31 -28 -8 -53 46 -16 33 -28 62
-28 65 0 12 8 5 25 -20z m196 -67 c-13 -13 -15 1 -4 30 7 17 8 17 11 -1 2 -10
-1 -23 -7 -29z m236 -83 c-3 -52 -8 -98 -12 -102 -7 -7 -5 114 3 166 9 63 14
30 9 -64z m-3032 -5 c-8 -61 -16 -89 -27 -89 -5 0 -7 8 -4 18 3 9 8 38 12 65
3 26 10 47 15 47 5 0 7 -18 4 -41z m2729 14 l15 -28 1 25 c0 21 2 23 15 9 18
-18 95 -239 83 -239 -4 0 -8 -10 -8 -21 0 -18 2 -19 15 -9 13 11 15 7 14 -31
-1 -24 -3 -36 -6 -27 -2 9 -10 15 -16 13 -7 -3 -20 7 -30 20 -14 19 -18 47
-20 120 -2 60 -8 100 -16 108 -10 10 -11 0 -6 -48 4 -34 2 -71 -4 -85 -9 -23
-10 -23 -10 14 -1 30 -4 37 -16 32 -17 -6 -21 9 -5 19 13 8 13 55 1 55 -11 0
-23 33 -26 72 -3 35 1 35 19 1z m-48 -6 c12 16 13 15 5 -12 -4 -16 -6 -36 -4
-42 9 -24 -7 -13 -22 17 -17 33 -20 65 -4 37 10 -18 11 -18 25 0z m301 -159
c-2 -13 -4 -3 -4 22 0 25 2 35 4 23 2 -13 2 -33 0 -45z m-3003 6 c3 -8 2 -12
-4 -9 -6 3 -10 10 -10 16 0 14 7 11 14 -7z m335 -55 c-7 -24 -12 -47 -11 -51
1 -5 -5 -8 -14 -8 -9 0 -14 6 -11 13 30 76 40 97 44 93 2 -2 -1 -24 -8 -47z
m2696 10 c-9 -17 -19 -28 -22 -25 -8 8 17 56 29 56 5 0 1 -14 -7 -31z m-3025
-3 c1 0 3 -32 6 -71 3 -38 9 -86 14 -105 5 -19 10 -39 11 -45 10 -56 83 -215
105 -228 20 -11 8 -26 -15 -20 -11 3 -19 12 -19 21 1 10 -16 48 -38 87 -21 38
-40 74 -41 80 -2 10 -22 99 -26 120 -2 6 -6 16 -10 22 -5 7 -11 45 -14 83 -5
63 -4 70 11 64 9 -3 16 -7 16 -8z m2984 -35 c3 -5 -1 -11 -9 -14 -9 -4 -12 -1
-8 9 6 16 10 17 17 5z m-197 -123 c-3 -7 -5 -2 -5 12 0 14 2 19 5 13 2 -7 2
-19 0 -25z m-2317 8 c0 -19 -49 -76 -50 -58 0 14 37 72 46 72 2 0 4 -6 4 -14z
m-190 -30 c0 -3 -4 -8 -10 -11 -5 -3 -10 -1 -10 4 0 6 5 11 10 11 6 0 10 -2
10 -4z m2673 -13 c-10 -26 -35 -64 -40 -60 -6 7 29 77 39 77 4 0 4 -8 1 -17z
m-2654 -58 c-7 -7 -13 -5 -19 5 -15 24 -11 31 10 18 13 -9 16 -16 9 -23z m98
-17 c-3 -7 -5 -2 -5 12 0 14 2 19 5 13 2 -7 2 -19 0 -25z m-163 -52 c20 -66
20 -67 1 -60 -8 4 -15 18 -15 32 0 47 -18 9 -23 -48 -2 -31 -12 -73 -22 -94
-17 -36 -17 -40 -2 -51 18 -13 15 -57 -3 -63 -7 -3 -7 -9 1 -18 14 -17 3 -32
-12 -17 -18 18 -20 66 -5 138 14 70 58 235 62 235 2 0 10 -24 18 -54z m11
-109 c-3 -12 -7 -32 -8 -44 0 -13 -7 -23 -15 -23 -9 0 -11 7 -6 23 6 19 10 37
13 70 1 5 6 5 11 2 6 -3 8 -16 5 -28z m2319 -22 c-4 -8 -10 -15 -16 -15 -11 0
-68 -61 -68 -73 0 -4 9 -3 19 3 28 14 31 13 31 -12 0 -17 -3 -19 -9 -9 -7 11
-13 11 -32 -3 -13 -9 -30 -16 -38 -16 -8 0 -32 -15 -55 -33 -41 -34 -76 -52
-76 -40 0 12 43 53 55 53 6 0 49 36 95 80 85 80 104 93 94 65z m76 0 c-7 -9
-15 -13 -19 -10 -3 3 1 10 9 15 21 14 24 12 10 -5z m-60 -29 c0 -2 -7 -9 -15
-16 -13 -11 -14 -10 -9 4 5 14 24 23 24 12z m124 -20 c-3 -8 -12 -17 -20 -20
-12 -4 -12 -2 -4 14 12 23 32 27 24 6z m-2481 -49 c-7 -11 -23 12 -23 33 1 12
4 11 15 -4 8 -10 12 -23 8 -29z m2401 -38 c-34 -36 -66 -56 -58 -37 5 13 72
68 82 68 3 0 -7 -14 -24 -31z m-77 -14 c-9 -8 -62 -46 -119 -83 -91 -61 -137
-97 -237 -191 -14 -13 -41 -30 -58 -37 -22 -10 -33 -21 -33 -35 0 -16 4 -19
20 -14 31 10 27 -32 -5 -47 -13 -6 -28 -23 -33 -37 -5 -14 -31 -53 -58 -85
-27 -32 -59 -71 -71 -85 l-21 -26 5 28 c3 15 17 37 32 48 26 20 71 86 71 103
0 5 -10 1 -21 -10 -22 -19 -22 -19 -17 11 3 17 8 39 12 50 5 13 -2 9 -21 -12
-33 -37 -43 -41 -43 -17 0 14 84 109 209 236 56 58 96 82 50 31 -13 -16 -33
-39 -44 -53 -20 -24 -20 -24 0 -10 10 8 38 33 61 55 23 22 52 48 64 58 35 29
18 29 -46 1 -32 -14 -80 -46 -106 -72 -35 -34 -51 -43 -59 -35 -16 16 94 121
169 160 53 28 62 30 60 15 -4 -24 37 -18 85 14 22 14 41 23 44 21 3 -3 -7 -13
-21 -22 -14 -10 -26 -21 -26 -26 0 -9 51 17 109 57 41 28 72 34 48 9z m123 11
c0 -2 -8 -10 -17 -17 -16 -13 -17 -12 -4 4 13 16 21 21 21 13z m-2348 -33 c26
-31 31 -43 14 -37 -29 11 -16 -10 31 -51 25 -22 44 -47 42 -54 -3 -8 -14 -4
-34 14 -17 14 -39 31 -50 37 -18 10 -18 9 -7 -4 10 -13 10 -18 1 -24 -8 -5 -3
-12 15 -21 16 -8 26 -22 26 -36 0 -18 2 -19 10 -7 9 13 11 13 20 0 5 -8 10
-10 10 -3 0 6 9 9 22 5 16 -4 19 -2 13 8 -5 9 -4 11 4 6 6 -4 9 -11 6 -16 -7
-12 20 -31 36 -25 16 6 79 -34 136 -85 50 -46 93 -76 120 -84 11 -4 23 -15 26
-26 4 -17 2 -18 -14 -9 -16 8 -19 6 -19 -13 -1 -21 -2 -21 -13 -6 -16 21 -183
108 -207 108 -9 0 -38 16 -63 35 -25 19 -50 35 -55 35 -5 0 -21 10 -36 21 -20
16 -26 28 -22 44 4 15 -1 28 -14 40 -23 21 -40 74 -40 128 0 41 17 49 42 20z
m2838 2 c-27 -14 -36 -13 -25 4 3 6 16 11 28 11 21 -1 21 -1 -3 -15z m-77 -23
c16 -7 14 -11 -15 -31 -18 -13 -27 -18 -20 -10 17 18 15 32 -3 25 -9 -3 -15 0
-15 9 0 16 23 18 53 7z m149 -19 c24 -25 25 -30 12 -47 -8 -11 -14 -28 -14
-39 0 -29 -51 -129 -82 -162 -17 -18 -27 -37 -24 -47 2 -11 -1 -18 -10 -18 -8
0 -14 -7 -14 -15 0 -8 -18 -25 -40 -37 -22 -13 -38 -29 -35 -35 2 -7 0 -13 -6
-13 -10 0 -29 -15 -131 -100 -18 -16 -30 -36 -31 -53 -1 -15 -8 -27 -15 -27
-7 0 -20 -17 -29 -37 -39 -85 -68 -117 -124 -137 -30 -10 -63 -26 -74 -37 -11
-10 -37 -25 -58 -34 -20 -8 -37 -20 -37 -25 0 -5 -16 -12 -36 -16 -24 -4 -34
-11 -30 -20 3 -8 2 -13 -2 -12 -12 3 -62 -25 -62 -34 0 -4 7 -8 16 -8 18 0 15
-31 -4 -38 -7 -2 -11 2 -10 8 2 7 -3 15 -10 17 -8 3 -10 -1 -5 -12 6 -16 4
-16 -19 -1 -14 9 -33 14 -42 10 -15 -6 -15 -8 -1 -30 21 -32 14 -30 -24 7 -28
26 -31 35 -25 62 10 50 40 102 66 114 20 10 20 12 4 12 -14 1 -8 8 20 27 49
33 80 70 94 112 7 17 15 32 20 32 4 0 22 22 40 49 27 43 39 52 88 69 30 10 58
24 60 31 5 14 -17 13 -78 -4 l-25 -7 23 21 c28 24 95 45 120 37 9 -3 22 -17
28 -30 9 -20 9 -23 -2 -19 -8 3 -14 1 -14 -5 0 -5 -9 -12 -21 -15 -12 -3 -18
-10 -15 -16 4 -6 14 -8 24 -5 11 4 8 -2 -8 -15 -14 -11 -28 -21 -32 -21 -13 0
-9 -40 4 -40 24 0 114 112 104 129 -4 5 12 28 34 51 22 22 40 45 40 50 0 5 6
15 13 22 14 15 57 117 57 137 0 7 9 25 19 40 11 15 23 39 26 54 9 33 45 63 56
45 5 -8 16 -8 41 3 18 7 37 13 41 11 5 -1 11 7 14 18 3 11 11 20 18 20 6 0 17
11 23 25 15 34 51 32 84 -2z m-672 -23 c-19 -16 -44 -31 -54 -34 -23 -6 -14 3
39 38 52 34 59 33 15 -4z m419 -14 c8 -10 9 -16 1 -21 -5 -3 -10 -1 -10 4 0 6
-7 11 -16 11 -8 0 -12 5 -9 10 9 14 20 12 34 -4z m-501 -43 c1 -30 -20 -73
-40 -84 -13 -7 -18 -18 -15 -30 3 -10 1 -19 -3 -19 -5 0 -33 -42 -64 -92 -74
-126 -157 -204 -332 -312 -92 -56 -147 -83 -112 -54 9 8 30 38 48 68 69 118
227 281 392 405 59 44 107 83 108 87 0 8 -66 -28 -91 -49 -14 -12 -17 -11 -23
3 -8 21 -4 25 23 27 14 1 20 6 16 15 -4 10 0 13 14 9 12 -3 28 4 42 19 27 29
35 30 37 7z m472 0 c0 -12 -55 -81 -75 -95 -147 -97 -262 -203 -374 -343 -35
-44 -72 -86 -82 -93 -10 -7 -24 -31 -30 -53 -9 -29 -22 -45 -43 -56 -17 -8
-47 -30 -66 -48 -33 -31 -100 -62 -100 -47 -1 4 -5 26 -9 50 -5 23 -5 42 0 42
13 0 39 30 39 46 0 8 -10 19 -22 24 -20 9 -19 10 9 7 27 -3 39 3 68 34 19 21
35 41 35 45 0 3 16 22 37 43 75 75 152 171 171 214 13 28 29 48 43 52 23 8 23
8 4 15 -17 6 -15 9 17 20 24 9 39 22 42 36 7 25 44 46 116 64 25 7 48 17 52
24 6 8 8 8 8 -1 0 -11 24 -3 78 25 23 12 82 8 82 -5z m-2392 -71 c23 -19 42
-32 42 -28 0 7 87 -39 117 -62 15 -12 19 -22 13 -37 -7 -19 -8 -18 -18 7 -11
28 -32 46 -32 29 0 -22 -31 -10 -49 19 -10 16 -20 27 -23 24 -11 -10 -148 91
-148 109 0 11 38 -13 98 -61z m1762 -28 c-9 -15 -10 -15 -6 -2 2 9 -2 19 -10
22 -9 3 -12 11 -8 17 4 8 11 6 21 -4 12 -12 13 -19 3 -33z m-32 -11 c-13 -30
-48 -70 -48 -54 0 5 -13 -4 -29 -20 -30 -30 -51 -37 -51 -18 0 14 58 67 81 74
9 3 19 15 22 25 3 11 12 20 21 20 13 0 14 -4 4 -27z m-280 -73 c-37 -39 -70
-70 -74 -70 -12 0 41 74 79 110 71 65 67 33 -5 -40z m-1488 -48 c47 -24 95
-51 108 -59 12 -7 28 -11 34 -7 6 4 8 3 5 -3 -4 -6 9 -18 28 -27 19 -9 35 -21
35 -25 0 -4 18 -13 39 -20 21 -6 50 -20 63 -32 22 -19 22 -20 1 -10 -12 6 -31
11 -42 11 -12 0 -21 5 -21 10 0 6 -5 10 -11 10 -5 0 -7 -4 -4 -10 10 -17 -14
-11 -33 8 -43 41 -77 62 -93 57 -11 -4 -31 6 -52 25 -19 16 -50 37 -68 45 -19
8 -30 14 -25 15 5 0 -10 10 -34 23 -24 13 -45 28 -48 35 -5 16 13 9 118 -46z
m-582 8 c13 -8 2 -9 -43 -5 -33 4 -72 7 -87 8 -15 1 -24 5 -21 10 7 12 128 1
151 -13z m848 -1 c19 -22 19 -22 -3 -10 -24 12 -39 31 -25 31 5 0 17 -10 28
-21z m78 -11 c-6 -9 -39 6 -49 21 -3 5 8 4 24 -2 17 -6 28 -15 25 -19z m-845
-15 c11 -24 11 -25 -4 -13 -24 20 -39 51 -22 44 8 -3 20 -17 26 -31z m-249 17
c0 -5 -7 -10 -15 -10 -8 0 -15 5 -15 10 0 6 7 10 15 10 8 0 15 -4 15 -10z
m334 -1 c14 -7 23 -15 21 -20 -6 -8 -75 8 -89 22 -14 13 38 11 68 -2z m86 -16
c0 -13 -3 -13 -15 -3 -8 7 -12 16 -9 21 8 13 24 1 24 -18z m105 -4 l20 -8 -20
-2 c-37 -3 -60 3 -75 18 -13 13 -11 14 20 8 19 -4 44 -11 55 -16z m583 -35
c78 -64 78 -74 -2 -22 -36 24 -66 49 -66 56 0 19 7 15 68 -34z m1899 40 c-3
-3 -12 -4 -19 -1 -8 3 -5 6 6 6 11 1 17 -2 13 -5z m-2447 -24 c0 -5 -5 -10
-11 -10 -5 0 -7 5 -4 10 3 6 8 10 11 10 2 0 4 -4 4 -10z m124 1 c6 -1 1 -7 -9
-15 -14 -10 -25 -11 -38 -5 -23 13 -12 30 16 25 12 -3 26 -5 31 -5z m336 -24
c0 -7 28 -25 63 -40 88 -38 178 -125 172 -164 -2 -7 -3 -18 -4 -24 0 -5 -6 -7
-12 -3 -8 5 -8 8 0 13 15 10 -37 78 -65 85 -12 3 -36 22 -53 41 -17 20 -36 33
-41 30 -16 -10 -58 24 -69 56 -6 18 -6 27 -1 24 6 -4 10 -12 10 -18z m1114
-16 c-19 -37 -40 -56 -49 -41 -5 9 45 70 58 70 3 0 -1 -13 -9 -29z m-931 6 c3
-8 2 -19 -2 -26 -6 -9 -13 -5 -25 13 -16 25 -16 26 3 26 10 0 21 -6 24 -13z
m-1163 -22 c7 -9 19 -14 25 -11 7 2 17 0 22 -5 7 -7 16 -5 26 5 10 10 18 12
22 6 3 -5 13 -10 21 -10 8 0 13 4 9 9 -3 6 7 6 27 1 23 -7 39 -6 60 4 23 12
28 12 28 1 0 -7 13 -16 29 -20 33 -7 151 -3 151 5 0 11 146 -12 200 -31 30
-11 60 -21 65 -22 6 -2 15 -5 20 -8 6 -4 22 -9 36 -12 26 -7 97 -75 118 -115
14 -26 28 -28 34 -4 3 9 4 1 2 -18 -1 -19 2 -48 7 -65 5 -16 11 -46 13 -65 2
-21 13 -43 28 -56 30 -25 25 -37 -27 -58 -55 -23 -77 -20 -114 15 -60 56 -133
100 -147 89 -10 -8 -13 -6 -11 7 0 11 -11 24 -29 33 -16 8 -42 28 -57 43 -29
29 -58 36 -58 13 0 -12 -6 -12 -32 -3 -18 7 -35 15 -38 18 -7 8 -68 20 -102
19 -19 0 -28 5 -28 15 0 9 -4 13 -10 10 -5 -3 -21 6 -35 21 -14 15 -25 22 -25
15 0 -6 -5 -11 -11 -11 -6 0 -9 7 -5 15 3 8 1 15 -3 15 -5 0 -12 -6 -14 -12
-3 -7 -6 -3 -6 9 -1 15 -6 21 -15 17 -7 -3 -16 2 -19 10 -11 27 -27 18 -27
-15 0 -17 -4 -28 -10 -24 -13 8 -13 -5 0 -25 9 -13 10 -13 10 0 0 10 4 8 13
-6 52 -89 88 -129 109 -121 7 2 22 0 33 -6 11 -6 29 -12 40 -14 10 -2 22 -9
27 -15 4 -7 24 -13 45 -14 86 -5 135 -23 182 -67 19 -18 31 -26 27 -20 -5 9
-2 11 8 7 8 -3 22 -21 31 -40 9 -19 20 -34 25 -34 6 0 10 -7 10 -15 0 -8 11
-17 25 -21 24 -6 35 -24 15 -24 -6 0 -3 -15 7 -32 9 -18 17 -57 17 -85 1 -29
4 -53 8 -53 16 0 7 -26 -12 -38 -12 -7 -18 -17 -15 -22 3 -5 0 -8 -7 -5 -7 2
-33 6 -57 9 -62 8 -152 35 -175 52 -16 11 -17 17 -8 26 14 14 16 32 3 23 -5
-3 -25 11 -44 30 -19 20 -45 37 -57 38 -18 1 -19 3 -6 12 13 10 12 15 -10 38
-13 14 -24 30 -24 34 0 5 -22 18 -49 30 -34 16 -52 32 -61 53 -7 16 -16 30
-21 30 -5 0 -9 7 -9 15 0 8 -25 33 -55 55 -99 73 -145 133 -145 190 0 10 -7
23 -15 30 -8 7 -15 23 -15 36 0 12 -7 30 -16 38 -8 9 -17 25 -19 36 -2 11 -6
24 -10 29 -6 11 22 30 46 31 9 0 22 -7 29 -15z m680 11 c0 -3 -4 -8 -10 -11
-5 -3 -10 -1 -10 4 0 6 5 11 10 11 6 0 10 -2 10 -4z m153 -55 c150 -83 283
-190 359 -291 49 -64 49 -65 25 -68 -40 -5 -80 22 -143 94 -129 147 -233 245
-288 270 -59 27 -102 63 -52 45 14 -6 59 -28 99 -50z m2137 45 c0 -2 -7 -7
-16 -10 -8 -3 -12 -2 -9 4 6 10 25 14 25 6z m-848 -23 c-21 -51 -64 -123 -72
-123 -16 0 -12 27 11 67 24 44 48 73 60 73 5 0 5 -8 1 -17z m1184 -19 c-4 -9
-9 -15 -11 -12 -3 3 -3 13 1 22 4 9 9 15 11 12 3 -3 3 -13 -1 -22z m-2033 -58
c42 -38 75 -71 74 -73 -9 -8 -66 24 -71 40 -3 12 -9 16 -17 11 -7 -4 -10 -3
-6 3 4 5 -5 16 -18 23 -14 7 -25 18 -25 23 0 6 -8 19 -17 30 -35 40 6 10 80
-57z m-92 47 c13 -16 12 -17 -3 -4 -10 7 -18 15 -18 17 0 8 8 3 21 -13z m979
13 c0 -13 -48 -85 -53 -80 -8 9 31 84 43 84 6 0 10 -2 10 -4z m-124 -31 c-9
-14 -14 -25 -11 -25 4 0 -3 -12 -14 -26 -27 -34 -27 -54 1 -54 18 0 20 -2 9
-12 -10 -11 -16 -9 -30 9 -10 12 -22 19 -26 15 -12 -12 37 82 53 101 23 26 37
20 18 -8z m-920 -59 c11 -8 40 -40 63 -70 24 -31 47 -53 52 -51 13 9 49 -18
49 -37 0 -10 -4 -18 -9 -18 -14 0 -94 75 -147 137 -45 52 -48 67 -8 39z m-66
-16 c14 -11 21 -20 17 -20 -5 0 -20 9 -34 20 -14 11 -22 20 -17 20 5 0 20 -9
34 -20z m2200 -16 c0 -2 -9 -4 -21 -4 -11 0 -18 4 -14 10 5 8 35 3 35 -6z
m-1997 -37 c-9 -16 -24 9 -17 28 7 18 8 18 14 -1 4 -10 5 -23 3 -27z m1182 13
c-3 -5 -12 -10 -18 -10 -7 0 -6 4 3 10 19 12 23 12 15 0z m762 4 c-3 -3 -12
-4 -19 -1 -8 3 -5 6 6 6 11 1 17 -2 13 -5z m-1802 -24 c16 -18 16 -20 2 -20
-9 0 -21 9 -27 20 -6 11 -7 20 -2 20 5 0 17 -9 27 -20z m-235 -37 l45 -47 -41
32 c-46 35 -71 62 -57 62 5 0 29 -21 53 -47z m143 0 c35 -49 23 -64 -14 -16
-15 21 -29 41 -29 46 0 17 19 4 43 -30z m394 -5 c-3 -8 -6 -5 -6 6 -1 11 2 17
5 13 3 -3 4 -12 1 -19z m-108 -32 c9 -11 8 -15 -5 -20 -12 -5 -14 -14 -10 -34
l6 -27 -13 24 c-14 23 -12 71 3 71 4 0 13 -6 19 -14z m316 -6 c3 -6 -1 -7 -9
-4 -18 7 -21 14 -7 14 6 0 13 -4 16 -10z m-495 -31 c0 -28 -2 -30 -17 -18 -10
7 -20 15 -22 16 -6 4 20 33 30 33 5 0 9 -14 9 -31z m88 13 c6 6 14 9 17 6 8
-8 -24 -38 -41 -38 -8 0 -14 4 -14 9 0 5 -3 18 -7 28 -6 17 -5 17 13 1 16 -14
23 -15 32 -6z m247 -2 c7 -11 -44 -34 -54 -24 -6 6 27 34 40 34 4 0 11 -5 14
-10z m239 -4 c-3 -8 -12 -12 -21 -9 -12 5 -12 7 -1 14 20 13 28 11 22 -5z
m-178 -33 c-11 -11 -17 4 -9 23 7 18 8 18 11 1 2 -10 1 -21 -2 -24z m-1770 -8
c22 -17 12 -20 -16 -5 -16 9 -18 8 -14 -5 5 -11 2 -13 -10 -9 -22 8 -20 34 2
34 10 0 27 -7 38 -15z m434 6 c0 -6 -4 -12 -8 -15 -5 -3 -9 1 -9 9 0 8 4 15 9
15 4 0 8 -4 8 -9z m820 0 c0 -6 -4 -12 -10 -16 -5 -3 -6 -13 -3 -22 4 -11 3
-14 -5 -9 -13 8 -16 39 -5 49 9 10 23 8 23 -2z m777 3 c-3 -3 -12 -4 -19 -1
-8 3 -5 6 6 6 11 1 17 -2 13 -5z m-327 -44 c0 -5 -4 -10 -10 -10 -5 0 -10 5
-10 10 0 6 5 10 10 10 6 0 10 -4 10 -10z m100 0 c0 -5 -5 -10 -11 -10 -5 0 -7
5 -4 10 3 6 8 10 11 10 2 0 4 -4 4 -10z m150 6 c0 -3 -4 -8 -10 -11 -5 -3 -10
-1 -10 4 0 6 5 11 10 11 6 0 10 -2 10 -4z m164 -15 c4 -5 -3 -7 -14 -4 -23 6
-26 13 -6 13 8 0 17 -4 20 -9z m-763 -38 c-12 -20 -14 -14 -5 12 4 9 9 14 11
11 3 -2 0 -13 -6 -23z m354 7 c-3 -5 -10 -10 -16 -10 -5 0 -9 5 -9 10 0 6 7
10 16 10 8 0 12 -4 9 -10z m-148 -22 c-3 -8 -6 -5 -6 6 -1 11 2 17 5 13 3 -3
4 -12 1 -19z m-152 -18 c3 -5 2 -10 -4 -10 -5 0 -13 5 -16 10 -3 6 -2 10 4 10
5 0 13 -4 16 -10z m555 -3 c0 -22 -11 -27 -33 -16 -16 9 -17 13 -6 20 21 13
39 11 39 -4z m-1830 -1 c0 -3 -4 -8 -10 -11 -5 -3 -10 -1 -10 4 0 6 5 11 10
11 6 0 10 -2 10 -4z m1670 -6 c0 -5 -9 -10 -20 -10 -11 0 -20 5 -20 10 0 6 9
10 20 10 11 0 20 -4 20 -10z m-870 -20 c0 -11 -7 -20 -15 -20 -17 0 -18 2 -9
24 9 23 24 20 24 -4z m725 10 c3 -5 1 -10 -4 -10 -6 0 -11 5 -11 10 0 6 2 10
4 10 3 0 8 -4 11 -10z m1140 0 c3 -5 -1 -10 -10 -10 -9 0 -13 5 -10 10 3 6 8
10 10 10 2 0 7 -4 10 -10z m-1320 -10 c-3 -5 -13 -10 -21 -10 -8 0 -12 5 -9
10 3 6 13 10 21 10 8 0 12 -4 9 -10z m766 -111 c2 -68 0 -89 -11 -89 -5 0 -10
7 -10 15 0 7 -8 19 -17 24 -16 9 -16 10 5 11 19 0 22 5 22 35 0 20 -7 52 -15
72 -21 49 -18 55 5 12 11 -20 20 -56 21 -80z m-997 86 c3 -8 1 -15 -4 -15 -6
0 -10 7 -10 15 0 8 2 15 4 15 2 0 6 -7 10 -15z m109 8 c-7 -2 -19 -2 -25 0 -7
3 -2 5 12 5 14 0 19 -2 13 -5z m-356 -9 c-3 -3 -12 -4 -19 -1 -8 3 -5 6 6 6
11 1 17 -2 13 -5z m823 -9 c0 -18 -37 -38 -56 -31 -24 9 -4 28 22 22 18 -5 22
-3 18 9 -4 8 -1 15 5 15 6 0 11 -7 11 -15z m-676 -14 c3 -4 -4 -17 -15 -27
-21 -19 -21 -18 -8 9 13 30 15 31 23 18z m-287 -33 c-3 -7 -5 -2 -5 12 0 14 2
19 5 13 2 -7 2 -19 0 -25z m1438 2 c16 -30 20 -72 8 -83 -9 -10 -33 13 -32 32
0 10 2 12 6 3 2 -6 9 -10 14 -6 5 3 2 18 -6 34 -15 29 -19 50 -10 50 2 0 11
-13 20 -30z m-2030 10 c3 -5 2 -10 -4 -10 -5 0 -13 5 -16 10 -3 6 -2 10 4 10
5 0 13 -4 16 -10z m1843 -2 c18 -18 14 -31 -8 -25 -14 4 -20 0 -20 -13 0 -19
-27 -47 -36 -37 -3 3 0 15 6 27 11 20 9 21 -17 18 -25 -3 -29 -7 -33 -51 -3
-26 -14 -55 -23 -64 -14 -15 -17 -15 -17 -2 0 8 5 20 12 27 13 13 8 15 -16 6
-21 -8 -39 -78 -30 -117 4 -18 7 -48 6 -67 l-2 -35 33 38 32 37 20 -36 c13
-24 19 -53 18 -87 -2 -47 -1 -50 12 -33 8 10 16 22 17 25 2 3 21 16 43 28 31
17 41 29 46 56 3 18 16 50 28 70 20 33 21 37 5 37 -16 0 -16 1 -1 18 10 10 14
22 10 25 -3 4 1 7 11 7 27 0 30 -27 6 -65 -28 -45 -34 -128 -16 -199 17 -64
14 -273 -4 -336 -7 -25 -14 -51 -14 -58 -1 -7 -8 -17 -16 -22 -8 -5 -12 -10
-8 -10 4 0 2 -15 -4 -32 -5 -18 -11 -43 -12 -55 -1 -12 -10 -30 -19 -41 -10
-10 -18 -36 -19 -56 -1 -23 -4 -32 -9 -24 -12 19 -52 -78 -45 -107 3 -13 2
-26 -2 -29 -5 -3 -9 -26 -10 -53 -3 -65 16 -35 27 44 7 53 9 56 19 33 l10 -25
7 33 c4 17 11 32 16 32 5 0 9 8 9 18 0 11 10 27 22 38 23 20 23 20 2 -31 -3
-8 -1 -15 5 -15 6 0 11 -7 11 -15 0 -8 4 -15 8 -15 12 0 13 112 1 127 -18 21
1 36 22 17 17 -16 18 -15 7 13 -6 17 -8 39 -3 49 6 16 9 12 20 -21 16 -49 13
-262 -4 -293 -8 -15 -8 -22 -1 -22 7 0 7 -7 -1 -22 -7 -13 -12 -25 -11 -28 3
-8 -19 -72 -45 -131 -15 -35 -34 -61 -48 -67 -13 -6 -31 -26 -41 -43 -9 -18
-25 -41 -35 -52 -10 -12 -19 -29 -19 -39 0 -10 -4 -18 -9 -18 -5 0 -13 -9 -16
-21 -4 -11 -12 -18 -18 -16 -7 2 -20 0 -31 -5 -10 -6 -29 -11 -41 -12 -17 -2
-21 1 -17 16 2 10 -1 18 -7 18 -6 0 -13 -10 -16 -22 -21 -96 -22 -108 -9 -134
14 -26 11 -44 -7 -44 -6 0 -8 4 -5 9 3 5 1 22 -5 39 -11 33 -34 34 -44 1 -14
-43 -65 -61 -65 -23 0 8 6 11 15 8 8 -4 25 6 39 23 32 35 41 62 27 76 -8 8
-11 7 -11 -4 0 -8 -11 -31 -25 -51 -18 -27 -30 -35 -45 -31 -16 4 -21 -1 -26
-26 -7 -36 -24 -42 -24 -8 -1 22 -1 22 -15 -3 l-13 -25 -7 26 c-8 33 -36 29
-56 -8 -19 -36 -79 -58 -79 -28 0 8 -6 12 -14 9 -8 -3 -16 0 -19 8 -2 7 -2 0
0 -17 l5 -30 -26 30 c-14 17 -25 35 -26 41 0 19 -57 22 -77 5 -11 -10 -13 -11
-5 -2 17 21 15 60 -3 68 -21 7 -32 -4 -17 -19 14 -14 16 -28 4 -28 -11 0 -62
92 -62 111 0 7 7 20 15 29 19 21 30 70 16 70 -6 0 -15 -8 -20 -17 -9 -16 -10
-16 -11 -1 0 9 -6 23 -13 30 -8 7 -14 22 -14 32 0 17 1 18 13 1 17 -23 36 -10
34 23 -4 58 0 82 14 82 8 0 20 17 26 38 22 72 20 68 31 52 5 -8 14 -33 21 -55
l11 -40 8 35 c4 21 3 40 -3 47 -7 8 -7 21 0 40 6 15 11 21 12 13 6 -50 6 -74
0 -115 -4 -25 -4 -43 -1 -40 3 3 10 -5 17 -17 l12 -23 7 28 c4 15 4 53 0 85
-4 31 -9 73 -11 92 -2 33 -1 34 12 15 13 -17 16 -18 24 -5 6 9 6 16 0 18 -6 2
-10 11 -10 20 0 12 -3 13 -8 5 -6 -9 -12 -7 -25 7 -23 28 -37 25 -38 -7 -1
-21 -2 -23 -6 -8 -3 11 -16 44 -29 73 -24 53 -32 120 -15 137 5 6 12 34 16 64
4 30 9 63 11 75 21 92 21 117 3 126 -11 6 -16 18 -14 30 7 34 15 42 31 29 8
-6 14 -8 14 -4 0 4 7 1 17 -6 9 -8 19 -14 22 -14 3 0 5 -5 3 -11 -1 -7 2 -15
8 -19 5 -3 10 3 10 14 0 52 108 80 174 46 16 -9 37 -13 48 -10 10 4 18 2 18
-4 0 -6 5 -11 10 -11 18 0 10 39 -12 61 l-23 22 28 -7 c19 -4 26 -3 22 4 -3 5
-16 10 -28 10 -21 1 -21 1 -4 14 10 8 28 11 40 8 20 -5 20 -4 8 11 -7 9 -9 17
-3 17 20 0 35 -32 37 -78 1 -26 5 -55 9 -64 5 -12 4 -18 -4 -18 -7 0 5 -16 26
-35 21 -20 40 -31 42 -25 2 6 13 -1 24 -15 11 -14 24 -23 29 -20 5 4 9 2 9 -4
0 -5 -4 -13 -10 -16 -5 -3 -10 -19 -10 -35 0 -16 -4 -32 -10 -35 -5 -3 -10 1
-10 11 0 17 -8 26 -84 84 -29 23 -43 41 -40 51 5 19 -40 42 -84 41 -15 0 -30
5 -34 12 -5 7 -8 5 -8 -6 0 -10 -9 -22 -21 -29 -17 -9 -25 -7 -43 10 -30 28
-52 27 -24 -1 15 -15 18 -23 9 -26 -7 -2 -17 0 -23 6 -12 12 -40 4 -32 -9 3
-5 11 -7 17 -3 7 3 3 -1 -8 -10 -107 -81 -123 -113 -130 -268 -6 -108 12 -133
61 -87 27 25 48 16 40 -17 -5 -17 -2 -26 9 -30 8 -4 15 -12 15 -20 0 -8 7 -14
16 -14 8 0 13 -4 10 -9 -3 -5 1 -14 9 -21 8 -7 15 -22 16 -34 0 -11 3 -15 6
-8 9 22 23 2 23 -34 0 -39 -2 -39 -79 -8 -19 8 -36 12 -39 9 -3 -2 1 -25 8
-50 10 -36 10 -51 1 -73 -13 -27 -13 -27 8 -8 12 11 24 16 28 13 3 -4 12 -2
19 4 10 8 15 5 19 -13 3 -13 14 -24 23 -25 9 -1 28 -4 41 -9 20 -6 23 -4 18 9
-4 10 -3 17 2 17 11 0 21 -35 21 -73 0 -35 16 -27 35 19 8 20 39 59 70 88 30
30 55 58 55 64 0 7 -17 10 -47 7 -48 -5 -48 -4 -20 11 30 16 34 24 12 24 -8 0
-24 -9 -34 -19 -20 -20 -87 -31 -109 -17 -7 4 -12 14 -12 23 0 12 3 13 13 5
19 -16 57 -3 57 18 0 10 -5 20 -10 22 -6 2 -4 11 5 23 16 20 16 20 12 -2 -3
-13 2 -28 14 -39 17 -15 18 -15 16 12 -2 26 1 29 26 29 15 -1 26 4 24 10 -2 5
-14 9 -25 7 -12 -2 -22 2 -22 9 0 7 11 10 30 7 39 -6 68 24 72 76 4 46 16 54
48 28 31 -25 22 -54 -35 -116 -62 -66 -59 -94 3 -33 29 29 57 47 71 47 16 0
21 4 18 15 -4 8 -2 17 3 20 6 4 10 0 10 -9 0 -25 -12 -46 -26 -46 -7 0 -32
-18 -55 -40 -31 -29 -38 -41 -27 -45 22 -8 59 9 95 44 18 17 40 31 48 31 8 0
24 18 35 40 12 23 25 38 30 35 6 -4 10 5 10 19 0 14 -3 26 -6 26 -8 0 -36 -29
-57 -59 l-18 -26 7 29 c4 18 2 31 -6 36 -11 7 -11 14 -1 38 11 26 9 39 -14
103 -28 79 -35 118 -23 135 14 19 66 174 60 175 -4 0 3 4 16 9 14 6 34 34 52
72 34 72 40 114 13 104 -10 -4 -25 2 -40 15 l-23 22 0 -26 c0 -24 -46 -84 -56
-74 -4 4 -15 202 -14 267 0 14 0 79 0 144 0 66 2 128 5 137 3 10 21 23 40 29
40 13 48 34 10 24 -49 -12 -17 23 60 64 27 15 68 15 83 0z m-1218 -12 c0 -8
-9 -24 -20 -37 l-20 -24 17 38 c18 40 23 45 23 23z m1625 -45 c-6 -6 -16 4
-27 27 l-17 36 26 -27 c17 -17 24 -30 18 -36z m-1135 39 c0 -5 -2 -10 -4 -10
-3 0 -8 5 -11 10 -3 6 -1 10 4 10 6 0 11 -4 11 -10z m751 -23 c-10 -9 -11 -8
-5 6 3 10 9 15 12 12 3 -3 0 -11 -7 -18z m-901 -25 c22 -22 40 -48 40 -60 0
-26 -3 -27 -35 -6 -13 8 -22 21 -19 28 2 6 -14 22 -36 35 -45 25 -51 41 -15
41 14 0 40 -15 65 -38z m215 18 c4 -6 1 -9 -6 -8 -7 2 -16 -10 -20 -27 -5 -22
-7 -24 -8 -8 0 12 -4 28 -7 37 -4 11 0 16 14 16 12 0 24 -5 27 -10z m-300 -34
c11 -8 15 -16 10 -16 -6 0 -16 5 -23 12 -8 8 -15 8 -29 -3 -16 -13 -17 -12 -5
3 8 10 9 18 3 22 -11 7 -31 -24 -31 -48 0 -8 -5 -18 -11 -21 -22 -14 -20 4 6
44 27 44 32 44 80 7z m680 24 c3 -6 -1 -13 -10 -16 -19 -8 -30 0 -20 15 8 14
22 14 30 1z m-930 -39 c-3 -6 -11 -11 -17 -11 -6 0 -6 6 2 15 14 17 26 13 15
-4z m1 -40 c-10 -11 -15 -24 -11 -30 4 -7 0 -8 -10 -5 -9 4 -14 13 -11 21 3 8
6 19 6 24 0 5 10 9 22 9 20 0 20 -1 4 -19z m321 2 c3 -7 -3 -9 -16 -6 -12 3
-21 10 -21 15 0 13 32 6 37 -9z m125 -5 c-7 -7 -12 -21 -12 -31 0 -17 -5 -19
-42 -12 -24 3 -59 9 -78 11 -19 2 -48 9 -65 14 -25 8 -20 9 25 5 30 -2 63 -7
73 -10 9 -4 24 -2 32 5 8 6 18 9 23 6 5 -3 18 1 28 9 23 18 32 19 16 3z m940
-10 c-7 -7 -12 -8 -12 -2 0 14 12 26 19 19 2 -3 -1 -11 -7 -17z m-824 1 c-10
-5 -18 -17 -18 -26 0 -13 -3 -14 -11 -6 -17 17 -3 43 23 43 20 -1 21 -2 6 -11z
m-670 -21 c-8 -12 -21 -24 -28 -26 -8 -3 -6 5 6 21 23 32 42 36 22 5z m1520
-56 c6 -18 -15 -14 -22 4 -4 10 -1 14 6 12 6 -2 14 -10 16 -16z m-1513 -1
c-12 -10 -75 -32 -75 -25 0 6 60 33 75 34 6 0 6 -3 0 -9z m1516 -96 c5 11 6
-24 3 -80 -4 -55 -11 -103 -16 -106 -6 -4 -7 -16 -3 -28 5 -17 2 -21 -14 -21
-26 0 -27 -12 -1 -35 21 -19 27 -45 10 -45 -5 0 -15 -18 -21 -41 -10 -31 -10
-48 -1 -71 12 -33 6 -60 -9 -37 -16 26 -21 -1 -10 -48 13 -52 3 -103 -20 -103
-7 0 -5 9 5 25 22 33 20 42 -4 20 -30 -28 -35 -11 -16 52 10 32 19 74 21 94 2
20 8 46 14 57 8 15 8 29 1 48 -14 37 -20 108 -10 124 4 7 -1 44 -11 82 -19 69
-18 113 4 105 6 -2 13 -9 15 -17 3 -7 0 -10 -7 -6 -6 4 -11 3 -11 -3 0 -22 24
-23 41 -2 17 21 17 25 4 51 -8 16 -15 33 -15 37 1 4 10 -10 22 -32 19 -36 22
-38 29 -20z m-943 -23 c2 -7 -2 -11 -10 -10 -7 2 -13 -4 -13 -12 0 -8 8 -14
18 -13 17 1 18 -4 12 -50 -4 -29 -9 -55 -12 -60 -8 -14 -23 4 -23 27 0 13 -9
35 -20 49 -26 33 -25 45 2 21 l22 -19 -22 36 c-12 20 -19 39 -15 43 11 11 56
2 61 -12z m-71 -110 c11 -43 1 -82 -21 -82 -9 0 -20 -9 -26 -20 -6 -11 -15
-20 -21 -20 -6 0 -8 4 -5 8 3 5 -2 22 -10 38 -10 18 -10 24 -3 17 15 -15 33
-17 25 -4 -3 5 1 12 9 15 13 5 13 9 3 25 -10 17 -9 23 6 40 26 29 32 27 43
-17z m-67 -23 c0 -6 -4 -7 -10 -4 -5 3 -10 11 -10 16 0 6 5 7 10 4 6 -3 10
-11 10 -16z m610 1 c0 -5 -6 -10 -14 -10 -8 0 -18 5 -21 10 -3 6 3 10 14 10
12 0 21 -4 21 -10z m-376 -9 c3 -5 -14 -11 -39 -13 -39 -3 -43 -1 -28 9 20 15
59 17 67 4z m-324 -20 c0 -11 -31 -24 -39 -16 -3 3 1 10 9 15 19 12 30 12 30
1z m210 -18 c0 -13 -3 -13 -15 -3 -8 7 -12 16 -9 21 8 13 24 1 24 -18z m535 8
c3 -5 1 -12 -4 -15 -5 -3 -11 1 -15 9 -6 16 9 21 19 6z m-447 -18 c15 -9 29
-18 31 -20 2 -2 -7 -13 -20 -25 -14 -13 -31 -32 -39 -43 -12 -16 -10 -16 12 3
l26 23 6 -26 c7 -29 26 -25 26 6 0 13 7 19 23 18 21 0 21 -1 2 -9 -11 -5 -14
-9 -7 -9 17 -1 15 -54 -5 -96 -11 -23 -22 -34 -31 -30 -8 3 -21 0 -29 -6 -7
-7 -16 -10 -18 -7 -5 5 13 24 59 61 19 15 25 26 18 31 -6 4 -18 -4 -28 -19
-18 -27 -37 -34 -28 -10 4 9 0 15 -10 15 -26 0 -31 -4 -29 -22 2 -12 -4 -18
-17 -18 -24 0 -24 3 -4 41 8 16 12 38 9 49 -3 10 -1 21 5 25 5 3 8 18 6 31 -5
24 1 54 10 54 3 0 17 -8 32 -17z m72 13 c0 -2 -8 -10 -17 -17 -16 -13 -17 -12
-4 4 13 16 21 21 21 13z m-200 -42 c-13 -33 -13 -34 6 -27 13 5 15 -1 13 -30
-2 -20 0 -39 4 -43 4 -4 7 2 7 14 0 19 16 39 25 30 2 -2 -7 -35 -21 -73 -31
-85 -40 -122 -19 -76 23 48 28 33 9 -24 -14 -39 -15 -54 -5 -80 14 -40 14 -56
-1 -52 -8 1 -11 -10 -10 -33 2 -27 0 -31 -7 -20 -9 13 -11 13 -11 -2 0 -10 -4
-18 -10 -18 -11 0 -7 42 10 88 14 37 6 77 -11 52 -7 -11 -9 -2 -7 28 1 29 -3
46 -12 52 -8 5 -11 12 -8 16 4 3 1 22 -8 42 -8 19 -12 37 -9 40 2 3 12 -11 20
-31 17 -41 30 -47 38 -17 3 12 0 20 -8 20 -30 0 -34 99 -5 140 26 37 33 38 20
4z m464 17 c6 -10 -43 -25 -52 -16 -3 3 2 5 11 5 10 0 17 5 17 10 0 12 17 13
24 1z m-409 -41 c-9 -14 -25 5 -25 30 0 12 3 12 16 -2 9 -9 13 -21 9 -28z
m405 -10 c12 -8 9 -10 -13 -10 -16 0 -26 4 -22 10 8 12 16 12 35 0z m-547 -42
c6 -22 5 -22 -8 -4 -17 22 -20 40 -6 32 5 -3 11 -16 14 -28z m622 -17 c3 -5 1
-12 -4 -15 -5 -3 -11 1 -15 9 -6 16 9 21 19 6z m465 -31 c0 -5 -7 -10 -16 -10
-8 0 -12 5 -9 10 3 6 10 10 16 10 5 0 9 -4 9 -10z m-445 -47 l18 -28 -29 25
c-16 14 -31 26 -33 28 -2 1 3 2 11 2 9 0 24 -12 33 -27z m27 18 c8 11 9 11 6
1 -4 -16 -22 -18 -24 -2 -2 7 -1 6 3 -1 4 -8 8 -7 15 2z m56 -22 c-3 -8 -7 -3
-11 10 -4 17 -3 21 5 13 5 -5 8 -16 6 -23z m532 21 c0 -5 -2 -10 -4 -10 -3 0
-8 5 -11 10 -3 6 -1 10 4 10 6 0 11 -4 11 -10z m-30 -10 c0 -5 -4 -10 -10 -10
-5 0 -10 5 -10 10 0 6 5 10 10 10 6 0 10 -4 10 -10z m-610 -44 c0 -6 -7 -2
-15 8 -8 11 -15 25 -15 30 0 6 7 2 15 -8 8 -11 15 -25 15 -30z m70 8 c0 -7
-40 -44 -47 -44 -2 0 4 11 13 25 15 23 34 33 34 19z m-56 -29 c-4 -8 -13 -15
-22 -15 -13 0 -12 3 4 15 24 18 25 18 18 0z m691 4 c11 -17 -1 -21 -15 -4 -8
9 -8 15 -2 15 6 0 14 -5 17 -11z m-95 -50 c0 -10 -7 -19 -15 -19 -17 0 -20 16
-5 25 6 4 7 11 4 17 -4 7 -2 8 4 4 7 -4 12 -16 12 -27z m52 13 c3 -10 -1 -27
-8 -37 -7 -10 -11 -31 -8 -49 3 -24 2 -27 -5 -11 -8 18 -9 18 -16 3 -6 -15 -9
-16 -22 -3 -16 16 -10 35 12 35 9 0 17 15 21 40 7 42 19 52 26 22z m-672 -12
c0 -5 -2 -10 -4 -10 -3 0 -8 5 -11 10 -3 6 -1 10 4 10 6 0 11 -4 11 -10z m514
-16 c3 -8 2 -12 -4 -9 -6 3 -10 10 -10 16 0 14 7 11 14 -7z m202 -10 c-22 -15
-36 -18 -36 -6 0 9 43 30 50 24 3 -2 -4 -10 -14 -18z m-1186 -5 c0 -5 -4 -9
-10 -9 -5 0 -10 7 -10 16 0 8 5 12 10 9 6 -3 10 -10 10 -16z m-88 -41 c-16
-16 -21 -8 -15 27 6 29 6 29 16 7 7 -16 7 -26 -1 -34z m1368 3 c9 -19 9 -22
-1 -19 -7 2 -14 15 -16 28 -4 27 -1 25 17 -9z m-1065 -11 c3 -5 1 -10 -4 -10
-6 0 -11 5 -11 10 0 6 2 10 4 10 3 0 8 -4 11 -10z m827 -15 c3 -13 2 -22 -2
-20 -11 7 -20 45 -10 45 4 0 10 -11 12 -25z m-757 -5 c-3 -5 -10 -10 -16 -10
-5 0 -9 5 -9 10 0 6 7 10 16 10 8 0 12 -4 9 -10z m718 -17 c-7 -3 -13 -11 -13
-19 0 -12 -3 -12 -14 -2 -11 10 -10 14 8 24 12 6 23 9 26 6 3 -3 -1 -7 -7 -9z
m201 -17 c-3 -9 -10 -16 -15 -16 -6 0 -5 9 1 21 13 24 24 20 14 -5z m46 -8 c0
-18 -2 -20 -9 -8 -6 8 -7 18 -5 22 9 14 14 9 14 -14z m-801 -6 c-6 -9 -32 -31
-57 -47 -26 -17 -55 -47 -66 -67 -11 -21 -21 -36 -24 -33 -2 2 5 20 17 40 11
20 21 42 21 49 0 6 15 17 34 24 18 7 41 21 51 32 22 25 39 26 24 2z m695 3
c-4 -8 -8 -15 -10 -15 -2 0 -4 7 -4 15 0 8 4 15 10 15 5 0 7 -7 4 -15z m-214
-5 c0 -5 -5 -10 -11 -10 -5 0 -7 5 -4 10 3 6 8 10 11 10 2 0 4 -4 4 -10z m385
-11 c4 -11 4 -23 1 -26 -3 -4 -1 -12 5 -20 9 -10 8 -13 -5 -13 -10 0 -16 9
-16 24 0 13 -3 31 -6 40 -3 9 -1 16 4 16 6 0 14 -9 17 -21z m-86 -41 c1 -3 -8
-4 -19 -1 -22 6 -27 29 -7 36 10 3 24 -14 26 -35z m-88 -2 c16 14 19 14 19 3
0 -8 -20 -32 -45 -52 -30 -25 -45 -33 -45 -23 0 8 9 18 21 21 21 7 21 11 5 60
-6 17 -5 17 10 -3 16 -21 18 -22 35 -6z m-101 -116 c-35 -86 -54 -104 -25 -23
22 60 48 114 53 108 3 -2 -10 -41 -28 -85z m200 36 c0 -12 -5 -7 -19 24 -11
24 -11 24 3 6 9 -11 16 -24 16 -30z m-850 7 c0 -13 -3 -13 -15 -3 -8 7 -15 16
-15 21 0 5 7 6 15 3 8 -4 15 -13 15 -21z m577 5 c-3 -8 -6 -5 -6 6 -1 11 2 17
5 13 3 -3 4 -12 1 -19z m-30 -35 c-3 -10 -5 -2 -5 17 0 19 2 27 5 18 2 -10 2
-26 0 -35z m423 -26 c0 -16 -24 9 -43 45 l-18 33 30 -35 c17 -19 31 -38 31
-43z m-1083 17 c-9 -9 -28 6 -21 18 4 6 10 6 17 -1 6 -6 8 -13 4 -17z m907 11
c3 -8 1 -15 -4 -15 -6 0 -10 7 -10 15 0 8 2 15 4 15 2 0 6 -7 10 -15z m-764
-36 c0 -5 -4 -9 -10 -9 -5 0 -10 7 -10 16 0 8 5 12 10 9 6 -3 10 -10 10 -16z
m474 5 c3 -8 2 -12 -4 -9 -6 3 -10 10 -10 16 0 14 7 11 14 -7z m92 -30 c-8
-21 -15 -31 -15 -22 -1 18 20 70 26 65 2 -2 -3 -21 -11 -43z m-709 21 c0 -8
-4 -12 -9 -9 -5 3 -6 10 -3 15 9 13 12 11 12 -6z m48 5 c3 -6 -1 -13 -10 -16
-19 -8 -30 0 -20 15 8 14 22 14 30 1z m836 -13 c-1 -12 -15 -9 -19 4 -3 6 1
10 8 8 6 -3 11 -8 11 -12z m-1255 -34 c-11 -11 -17 4 -9 23 7 18 8 18 11 1 2
-10 1 -21 -2 -24z m1204 -18 c0 -17 -2 -17 -10 -5 -5 8 -10 24 -10 35 0 17 2
17 10 5 5 -8 10 -24 10 -35z m150 20 c0 -8 -4 -15 -10 -15 -5 0 -7 7 -4 15 4
8 8 15 10 15 2 0 4 -7 4 -15z m-860 -46 c0 -5 -15 -8 -33 -7 -18 1 -43 -4 -56
-11 -24 -13 -41 -7 -25 8 24 24 114 32 114 10z m640 -6 c0 -21 -3 -24 -9 -14
-5 8 -7 20 -4 28 8 21 13 15 13 -14z m193 7 c-3 -11 -7 -20 -9 -20 -2 0 -4 9
-4 20 0 11 4 20 9 20 5 0 7 -9 4 -20z m-45 -18 c3 -9 -2 -13 -14 -10 -9 1 -19
9 -22 16 -3 9 2 13 14 10 9 -1 19 -9 22 -16z m-1218 -32 c0 -16 -4 -30 -8 -30
-5 0 -13 -10 -18 -22 -6 -13 -9 -17 -7 -10 2 8 6 31 9 53 8 46 24 52 24 9z
m225 0 c3 -5 1 -10 -4 -10 -6 0 -11 5 -11 10 0 6 2 10 4 10 3 0 8 -4 11 -10z
m785 -29 c0 -17 -4 -33 -10 -36 -6 -4 -10 8 -10 29 0 20 5 36 10 36 6 0 10
-13 10 -29z m30 15 c0 -8 -4 -18 -10 -21 -5 -3 -10 3 -10 14 0 12 5 21 10 21
6 0 10 -6 10 -14z m-124 -64 c-11 -10 -15 4 -8 28 l7 25 3 -23 c2 -13 1 -26
-2 -30z m183 -9 c9 -7 11 -13 6 -13 -16 0 -35 22 -34 40 0 13 1 13 6 0 4 -8
13 -20 22 -27z m-220 -122 c0 -13 -2 -21 -5 -18 -4 4 -8 28 -10 54 -2 40 -1
43 5 18 5 -16 9 -41 10 -54z m-581 41 c3 -11 0 -12 -16 -3 -10 6 -23 7 -27 3
-5 -4 -5 -1 -1 6 10 16 38 12 44 -6z m717 -2 c11 -1 -24 -30 -36 -30 -4 0 -7
8 -6 19 1 11 7 17 17 16 8 -2 20 -4 25 -5z m-170 -60 c8 -13 -35 -111 -46
-104 -13 8 -11 34 2 32 7 -2 18 12 26 31 13 30 12 33 -1 28 -16 -6 -22 4 -9
16 9 10 21 9 28 -3z m173 -12 c-6 -18 -28 -21 -28 -4 0 9 7 16 16 16 9 0 14
-5 12 -12z m22 -28 c0 -5 -5 -10 -11 -10 -5 0 -7 5 -4 10 3 6 8 10 11 10 2 0
4 -4 4 -10z m-120 -3 c0 -2 -15 -16 -32 -33 l-33 -29 29 33 c28 30 36 37 36
29z m-168 -46 c2 -17 1 -28 -4 -25 -8 5 -12 54 -4 54 2 0 6 -13 8 -29z m206 4
c-3 -3 -9 2 -12 12 -6 14 -5 15 5 6 7 -7 10 -15 7 -18z m-53 -25 c-10 -11 -23
-20 -28 -20 -6 0 -2 9 8 20 10 11 23 20 28 20 6 0 2 -9 -8 -20z m-161 -52 c2
-16 -1 -31 -7 -34 -7 -4 -9 -4 -6 0 4 4 3 23 -1 43 -5 20 -5 32 0 27 5 -5 11
-21 14 -36z m148 -50 c-7 -7 -12 -8 -12 -2 0 14 12 26 19 19 2 -3 -1 -11 -7
-17z m-212 -44 c-18 -21 -24 -10 -9 18 8 14 14 18 17 10 2 -7 -2 -19 -8 -28z
m82 -19 c-2 -10 2 -21 8 -25 9 -5 9 -9 1 -14 -6 -4 -15 4 -21 19 -13 35 -13
48 3 42 6 -2 11 -12 9 -22z m84 6 c-3 -4 -10 -21 -16 -36 -6 -15 -13 -25 -16
-22 -6 6 23 67 32 67 3 0 3 -4 0 -9z m-126 -45 c0 -20 -4 -23 -21 -19 -19 5
-20 3 -14 -18 6 -19 5 -21 -5 -13 -16 16 -3 57 16 50 8 -3 14 1 14 9 0 8 2 15
5 15 3 0 5 -11 5 -24z m-136 -12 c3 -8 2 -12 -4 -9 -6 3 -10 10 -10 16 0 14 7
11 14 -7z m-518 -14 c5 1 10 -4 12 -10 3 -7 -3 -10 -14 -8 -10 2 -20 12 -22
23 -2 15 -1 16 6 7 5 -8 13 -13 18 -12z m655 -57 c-12 -20 -14 -14 -5 12 4 9
9 14 11 11 3 -2 0 -13 -6 -23z m-301 3 c0 -11 -19 -15 -25 -6 -3 5 1 10 9 10
9 0 16 -2 16 -4z m80 -49 c0 -12 0 -11 -24 28 l-17 30 20 -24 c12 -13 21 -28
21 -34z m35 43 c-3 -5 -11 -10 -16 -10 -6 0 -7 5 -4 10 3 6 11 10 16 10 6 0 7
-4 4 -10z m-451 -10 c37 -14 32 -27 -9 -22 -34 4 -42 11 -28 25 8 9 7 9 37 -3z
m295 -34 c0 -6 -3 -5 -6 2 -2 6 -9 10 -14 6 -5 -3 -9 5 -9 18 1 22 1 22 15 4
8 -11 15 -25 14 -30z m-229 26 c0 -5 -7 -9 -15 -9 -8 0 -15 4 -15 9 0 4 7 8
15 8 8 0 15 -4 15 -8z m50 -1 c0 -5 3 -17 7 -27 4 -11 3 -15 -4 -11 -14 9 -24
47 -12 47 5 0 9 -4 9 -9z m120 -28 c0 -26 -1 -26 -17 -10 -16 16 -16 19 -3 27
20 13 20 13 20 -17z m110 7 c0 -5 -2 -10 -4 -10 -3 0 -8 5 -11 10 -3 6 -1 10
4 10 6 0 11 -4 11 -10z m237 -38 c2 -33 -1 -43 -7 -32 -11 18 -13 80 -2 80 4
0 8 -21 9 -48z m-491 12 c-5 -14 -9 -15 -19 -5 -9 9 -9 14 3 21 18 11 24 6 16
-16z m64 6 c0 -5 -5 -10 -11 -10 -5 0 -7 5 -4 10 3 6 8 10 11 10 2 0 4 -4 4
-10z m64 -46 c3 -8 2 -12 -4 -9 -6 3 -10 10 -10 16 0 14 7 11 14 -7z m206 0
c0 -9 -5 -14 -12 -12 -18 6 -21 28 -4 28 9 0 16 -7 16 -16z m-103 -16 c-3 -8
-6 -5 -6 6 -1 11 2 17 5 13 3 -3 4 -12 1 -19z m158 12 c-3 -5 -12 -10 -18 -10
-7 0 -6 4 3 10 19 12 23 12 15 0z m-447 -12 c-2 -6 -10 -14 -16 -16 -7 -2 -10
2 -6 12 7 18 28 22 22 4z m500 -20 c-6 -18 -12 -39 -14 -45 -2 -7 -8 -13 -13
-13 -12 0 3 55 20 76 17 21 18 17 7 -18z m-278 8 c0 -3 -4 -8 -10 -11 -5 -3
-10 -1 -10 4 0 6 5 11 10 11 6 0 10 -2 10 -4z m304 -31 c-4 -8 -8 -15 -10 -15
-2 0 -4 7 -4 15 0 8 4 15 10 15 5 0 7 -7 4 -15z m-484 -35 c0 -5 -5 -10 -11
-10 -5 0 -7 5 -4 10 3 6 8 10 11 10 2 0 4 -4 4 -10z m161 -47 c-10 -17 -10
-16 -11 3 0 23 13 41 18 25 2 -6 -1 -18 -7 -28z m-144 -5 c-3 -8 -6 -5 -6 6
-1 11 2 17 5 13 3 -3 4 -12 1 -19z"/>
<path d="M1192 3350 c0 -14 2 -19 5 -12 2 6 2 18 0 25 -3 6 -5 1 -5 -13z"/>
<path d="M1400 3090 c0 -6 17 -18 38 -26 20 -8 49 -21 65 -30 15 -8 32 -12 39
-8 6 4 8 3 5 -3 -4 -6 5 -14 20 -18 15 -3 40 -16 57 -28 34 -24 78 -49 81 -45
1 2 -19 23 -44 48 -24 25 -41 39 -37 32 5 -8 -10 -2 -33 13 -22 15 -41 32 -41
38 0 6 -3 8 -6 5 -3 -4 -20 -1 -37 7 -49 19 -107 28 -107 15z"/>
<path d="M3670 2640 c-11 -7 -7 -10 18 -10 17 0 32 5 32 10 0 13 -30 13 -50 0z"/>
<path d="M3639 2599 c-11 -11 -18 -27 -15 -36 3 -8 6 -19 6 -24 0 -18 28 -8
44 16 35 53 8 87 -35 44z"/>
<path d="M1700 3040 c0 -5 5 -10 11 -10 5 0 7 5 4 10 -3 6 -8 10 -11 10 -2 0
-4 -4 -4 -10z"/>
<path d="M1970 2775 c7 -8 17 -15 22 -15 6 0 5 7 -2 15 -7 8 -17 15 -22 15 -6
0 -5 -7 2 -15z"/>
<path d="M2430 1512 c0 -2 5 -12 10 -23 14 -26 30 -24 30 4 0 16 -6 23 -20 23
-11 0 -20 -2 -20 -4z"/>
<path d="M2285 1410 c-3 -5 -1 -10 4 -10 6 0 11 5 11 10 0 6 -2 10 -4 10 -3 0
-8 -4 -11 -10z"/>
<path d="M2990 1080 c0 -5 5 -10 10 -10 6 0 10 5 10 10 0 6 -4 10 -10 10 -5 0
-10 -4 -10 -10z"/>
<path d="M2700 1061 c0 -6 4 -13 10 -16 6 -3 7 1 4 9 -7 18 -14 21 -14 7z"/>
<path d="M2216 801 c-20 -37 -23 -100 -7 -128 9 -16 11 -16 20 7 7 18 10 20
10 8 1 -10 6 -18 12 -18 11 0 8 35 -9 125 l-8 40 -18 -34z"/>
<path d="M2165 557 c-4 -10 -5 -21 -1 -24 10 -10 18 4 13 24 -4 17 -4 17 -12
0z"/>
<path d="M2701 565 c1 -19 18 -51 18 -35 0 8 -4 22 -9 30 -5 8 -9 11 -9 5z"/>
<path d="M2186 524 c-4 -9 -4 -19 -2 -21 8 -8 26 8 26 23 0 19 -16 18 -24 -2z"/>
<path d="M3187 1924 c-4 -4 -7 -17 -7 -28 1 -19 1 -20 11 -3 11 19 8 43 -4 31z"/>
</g>
</svg>
